<svg id="Layer_1" data-name="Layer 1" xmlns="http://www.w3.org/2000/svg" viewBox="0 0 512 512"><path d="M533.85,334.83c29.85-16.7,40.35-50.07,37.25-100.15s14-175.27-27.94-198.22-68.47-29.63-104-14.6C378.5,47.52,406.63,48.5,324,68c-79.24,18.7-97.75,18.8-183,47C54.61,143.57-30.92,231-39,292-47.59,357-25.88,374.7-3.87,385.7c53.78,26.89,114.31,47.66,137.2,36.82,65.32-30.93,114.34-76.65,150.63-96C317.46,308.59,497.36,355.25,533.85,334.83Z" style="fill:#fff;stroke:#4c412e;stroke-miterlimit:10"/><path d="M437.76,328c81,18.9,142.78-50.06,117.24-121-11.41-31.7,5.18-127.48-44-145-39-13.9-58.37-29.69-90-18S379,69.84,305,87c-69,16-140,25-212,73C48.86,189.42,13.8,218.59-15,264c-24.82,39.13-2.84,93,16,104,44.78,26.07,119.39,38.29,140.34,31.41C208.4,377.39,249.86,331.36,279,319,312,305,408.11,321.08,437.76,328Z" style="fill:#fff;stroke:#4c412e;stroke-miterlimit:10;stroke-width:2px"/><path d="M447.94,317.32c62,18.1,127.78-43.53,95.34-96.72C524.64,190,541.61,104.3,506.3,88S450.64,53,420.56,63.43s-29.42,31.23-97.37,49.37c-65.87,17.58-121.89,7-181.55,46.34C100.4,186.31,37.19,219.53,9.79,259.89c-23.6,34.78,1.36,89,19.27,98.74C71.66,381.8,146.7,388.5,166,380.79c55.06-22,82.79-51.17,111.57-67.5S420.29,309.25,447.94,317.32Z" style="fill:#fff;stroke:#4c412e;stroke-miterlimit:10"/><path d="M489.5,293.5c28.37-1.47,45.58-26.64,43-62S532.86,109.07,498,92.86s-56.75-20.63-86.41-10.31-16,32.77-84.13,45c-66.2,11.84-143.36,13.29-202.18,52.3-40.66,27-89.35,48.86-105.75,94.3-10.19,28.23,15.7,50.72,29.93,59.4,41,25,88,36.62,108,32C211.33,353,254,320.24,282.66,297.68,308.35,277.48,461.13,295,489.5,293.5Z" style="fill:#fff;stroke:#4c412e;stroke-miterlimit:10"/><path d="M490.72,287.36c26.2-1.29,31-31,28.59-62S530,116.85,497.87,102.64s-52.42-18.08-79.82-9-14.51,30.65-77.43,41.33c-61.15,10.39-132.69,9.73-187,43.92C116,202.49,80.87,226.4,55.92,261.52c-21.5,30.27,14.15,45.48,29.58,55,26,16,73.66,28.8,92,28,23-1,89.2-44.36,117-65C318.43,261.72,464.51,288.65,490.72,287.36Z" style="fill:#fff;stroke:#4c412e;stroke-miterlimit:10"/><path d="M464.5,269.5c22-1,26-24,24-48s9-84-18-95-44-14-67-7-12.18,23.73-65,32c-51.33,8-111.39,7.53-157,34-31.53,18.3-61.06,36.81-82,64-18,23.43,1.14,48.18,12,58,4.75,4.29,56,33,97,16s73-47,95-58S442.5,270.5,464.5,269.5Z" style="fill:#fff;stroke:#4c412e;stroke-miterlimit:10;stroke-width:2px"/><path d="M293.5,177.5c-71-2-248,99-146,116s138-75,220-61,103,8,101-14,10-124.3-75-66C366.54,171,308.91,176.13,293.5,177.5Z" style="fill:#fff;stroke:#4c412e;stroke-miterlimit:10"/><path d="M212.5,229.5c-19.44-1.79-27-3-43.41,11.77-10.78,9.7-18.17,8-25.59,17.23-12,15,24,26,48,21s31.55-8.41,42-28C241.5,236.5,213,229.55,212.5,229.5Z" style="fill:#fff;stroke:#4c412e;stroke-miterlimit:10"/><path d="M424.27,167.68a7.8,7.8,0,0,1-1.57-.26c-19.44-1.79-28.19,3.15-36.61,5.85-13.81,4.42-18.17,8-25.59,17.23-12,15,25,25,48,21s35.15,3.92,42-28C453.48,169.6,451.5,164.5,424.27,167.68Z" style="fill:#fff;stroke:#4c412e;stroke-miterlimit:10"/><path d="M-24.5,181.5s70-30,113-66,131-29,197-58,101-51,86-81-327-55-382-18-90,189-52,206Z" style="fill:#fff;stroke:#4c412e;stroke-miterlimit:10"/><path d="M-19.5,154.5s42-2,93-46,99-37,143-51,120-28,123-53-4-34-19-37-210-25-257-10-78,17-86,26-46,130-40,150S-19.5,154.5-19.5,154.5Z" style="fill:#fff;stroke:#4c412e;stroke-miterlimit:10;stroke-width:2px"/><path d="M-18.5,124.5s29,12,81-32,51-30,132-52,116-23,121-36,5-23-11-27-141-22-214-7-99,18-108,37-30,90-24,100S-26.5,123.5-18.5,124.5Z" style="fill:#fff;stroke:#4c412e;stroke-miterlimit:10"/><path d="M-20.5,96.5c19,15,17,15,31,12s41-28,57-41,45-28,67-33,72-15,108-22,59-7,57-15,2-10-16-13-127-9-187,3-96,21-105,42-16,33-14,50Z" style="fill:#fff;stroke:#4c412e;stroke-miterlimit:10"/><path d="M-9.5,77.5c10,25,27,14,38,1s38-40,81-52,118-17,123-23,11-13-9-15-100-2-133,8-74,20-88,45S-11.5,72.5-9.5,77.5Z" style="fill:#fff;stroke:#4c412e;stroke-miterlimit:10"/><path d="M26.5,27.5c-22.36,8.94-31,31-23,39s16,10,25-3,23-21,16-29S31.5,25.5,26.5,27.5Z" style="fill:#fff;stroke:#4c412e;stroke-miterlimit:10;stroke-width:2px"/><path d="M-14,406s26,0,59,18,37,34,81,21,67-42,113-56,70-32,139-19,177,17,162,50,53,72-19,101-142,40-233,25-132-65-151-72-28-21-61-5-24,30-29,40,6,56-39,43-71-64-57-100S-27,408-14,406Z" style="fill:#fff;stroke:#4c412e;stroke-miterlimit:10"/><path d="M-12.5,415.5s28-1,46,14,26,7,17,34-5,30-23,61-30,12-32,6-5-36-15-42-23-53-11-60S-19.5,419.5-12.5,415.5Z" style="fill:#fff;stroke:#4c412e;stroke-miterlimit:10"/><path d="M181.5,430.5c59.88-34.93,84-47,132-49s119,5,160,17,47,17,50,56-8,46-36,62-149,22-191,13-101-28-122-49S169.5,437.5,181.5,430.5Z" style="fill:#fff;stroke:#4c412e;stroke-miterlimit:10"/><path d="M187.5,450.5c1.89-37.81,74-47,98-50s122-4,179,8,45,53,41,63,1,34-51,41-126,11-179-5S185.5,490.5,187.5,450.5Z" style="fill:#fff;stroke:#4c412e;stroke-miterlimit:10"/><path d="M234.5,456.5c-8.48-39.68,75.32-38.95,105-40,21.2-.75,100-7,124,7s36,25,22,45-50,35-119,30-121-4-132-42" style="fill:#fff;stroke:#4c412e;stroke-miterlimit:10;stroke-width:2px"/><path d="M258.45,453.42c-6.39-26.39,56.73-25.9,79.09-26.6,16-.5,75.32-4.66,93.4,4.65s27.11,16.63,16.57,29.93-37.66,23.28-89.63,20-91.14-2.66-99.43-27.94" style="fill:#fff;stroke:#4c412e;stroke-miterlimit:10;stroke-width:0.7077803259802299px"/></svg>