<?xml version="1.0" encoding="utf-8"?>
<!-- Generator: Adobe Illustrator 25.2.3, SVG Export Plug-In . SVG Version: 6.00 Build 0)  -->
<svg version="1.1" id="Layer_1" xmlns="http://www.w3.org/2000/svg" xmlns:xlink="http://www.w3.org/1999/xlink" x="0px" y="0px"
	 viewBox="0 0 512 512" enable-background="new 0 0 512 512" xml:space="preserve">
<rect y="0.5" fill="#FFFFFF" stroke="#4C412E" stroke-width="1.002" stroke-miterlimit="10" width="512" height="512"/>
<path fill="#FFFFFF" stroke="#4C412E" stroke-miterlimit="10" d="M94.5,160c72-48,143-57,212-73c74-17.2,84.4-31.3,116-43
	c31.6-11.7,51,4.1,90,18c0.2,0.1,0.3,0.1,0.5,0.2V21.3c-25.6-9.8-46.6-10.3-72.3,0.5C380,47.5,408.1,48.5,325.5,68
	c-79.2,18.7-97.8,18.8-183,47C88.9,132.7,35.6,173.1,1,215.8v27.4C26.9,209.1,57.5,184.7,94.5,160z"/>
<path fill="#FFFFFF" stroke="#4C412E" stroke-width="1.0005" stroke-miterlimit="10" d="M439.2,328c-29.7-6.9-125.9-23-158.9-9
	c-29.2,12.4-70.7,58.4-137.8,80.4c-21,6.9-95.7-5.3-140.5-31.4c-0.5-0.3-1-0.6-1.5-1v20.3c53,26.1,111.5,45.8,134,35.1
	c65.4-30.9,114.5-76.6,150.8-96c28.9-15.4,167,17.2,227.8,13.3v-19.8C492.5,330.6,467,334.5,439.2,328z"/>
<path fill="#FFFFFF" stroke="#4C412E" stroke-miterlimit="10" d="M491,293.5c-28.4,1.5-181.2-16-206.8,4.2
	c-28.7,22.6-71.3,55.4-125.2,67.8c-20,4.6-67-7-108-32c-14.2-8.7-40.1-31.2-29.9-59.4c16.4-45.4,65.1-67.3,105.8-94.3
	c58.8-39,136-40.5,202.2-52.3c68.1-12.2,54.5-34.6,84.1-45s51.6-5.9,86.4,10.3c5.3,2.5,9.8,6.6,13.5,12V91.2
	c-1.6-1.2-3.3-2.3-5.2-3.2c-35.3-16.3-55.7-34.9-85.7-24.5s-29.4,31.2-97.4,49.4c-65.9,17.6-121.9,7-181.5,46.3
	c-41.2,27.2-104.5,60.4-131.8,100.8c-23.6,34.8,1.4,89,19.3,98.7c42.6,23.2,117.6,29.9,136.9,22.2c55.1-22,82.8-51.2,111.6-67.5
	c28.8-16.3,142.7-4,170.4,4c22.3,6.5,45,2.7,63.6-7.3v-23.7C506.8,290.5,499.4,293.1,491,293.5z"/>
<path fill="#FFFFFF" stroke="#4C412E" stroke-miterlimit="10" d="M499.4,102.6c-32.2-14.2-52.4-18.1-79.8-9
	c-27.4,9-14.5,30.7-77.4,41.3c-61.1,10.4-132.7,9.7-187,43.9c-37.6,23.6-72.7,47.6-97.7,82.7c-21.5,30.3,14.1,45.5,29.6,55
	c26,16,73.7,28.8,92,28c23-1,89.2-44.4,117-65c23.9-17.8,170,9.2,196.2,7.9c9.5-0.5,16.2-4.7,20.8-11.4V116.4
	C509.8,110.1,505.3,105.3,499.4,102.6z M490,221.5c2,24-2,47-24,48s-139-15-161-4s-54,41-95,58s-92.3-11.7-97-16
	c-10.9-9.8-30-34.6-12-58c20.9-27.2,50.5-45.7,82-64c45.6-26.5,105.7-26,157-34c52.8-8.3,42-25,65-32s40-4,67,7S488,197.5,490,221.5
	z"/>
<path fill="#FFFFFF" stroke="#4C412E" stroke-miterlimit="10" d="M393.5,152.5c-27,18.5-84.6,23.6-100,25c-71-2-248,99-146,116
	s138-75,220-61s103,8,101-14S478.5,94.2,393.5,152.5z M233.5,251.5c-10.4,19.6-18,23-42,28s-60-6-48-21c7.4-9.3,14.8-7.5,25.6-17.2
	c16.4-14.8,24-13.6,43.4-11.8C213,229.5,241.5,236.5,233.5,251.5z M450.5,183.5c-6.9,31.9-19,24-42,28s-60-6-48-21
	c7.4-9.3,11.8-12.8,25.6-17.2c8.4-2.7,17.2-7.6,36.6-5.8c0.5,0,1,0.3,1.6,0.3C451.5,164.5,453.5,169.6,450.5,183.5z"/>
<path fill="#FFFFFF" stroke="#4C412E" stroke-miterlimit="10" d="M285.5,57.5c47.2-20.8,78.6-37.9,87.1-57h-32.7
	c-0.1,1.3-0.2,2.6-0.4,4c-3,25-79,39-123,53s-92,7-143,51c-30,25.9-56.9,37.3-74,42.2v19.6c24.3-11.9,62-32.2,89-54.8
	C131.5,79.5,219.5,86.5,285.5,57.5z"/>
<path fill="#FFFFFF" stroke="#4C412E" stroke-miterlimit="10" d="M-0.5,0.5v18.3C7.8,11.3,21.2,5.7,39.4,0.5H-0.5z"/>
<path fill="#FFFFFF" stroke="#4C412E" stroke-miterlimit="10" d="M194.5,40.5c81-22,116-23,121-36c0.5-1.4,1-2.7,1.4-4h-18.1
	c-4.2,5.1-25.5,6-56.3,12c-36,7-86,17-108,22s-51,20-67,33s-43,38-57,41c-5.3,1.1-8.3,1.8-11,1.5v15.5c13.7-1.8,35-9.3,63-33
	C114.5,48.5,113.5,62.5,194.5,40.5z"/>
<path fill="#FFFFFF" stroke="#4C412E" stroke-miterlimit="10" d="M2.5,41.5c-1.1,1.9-2.1,3.7-3,5.5v43.3c9.4,6.3,20.9-2.2,29-11.8
	c11-13,38-40,81-52s118-17,123-23c0.8-1,1.7-2,2.4-3H77.1C47.1,9.4,14.6,19.8,2.5,41.5z M26.5,27.5c5-2,11-1,18,7s-7,16-16,29
	s-17,11-25,3S4.1,36.4,26.5,27.5z"/>
<path fill="#FFFFFF" stroke="#4C412E" stroke-width="1.0015" stroke-miterlimit="10" d="M239.7,389c-46.1,14-69.2,43-113.3,56
	s-48.1-3-81.2-21c-18.5-10.1-34.8-14.5-45.6-16.5v8.7c9.8,1.3,23.6,4.6,34.1,13.3c18.1,15,26.1,7,17,34c-7.7,23-5.9,28.6-16.4,49
	h11.9c0.2-1.4,0.6-2.6,1-3.5c5-10-4-24,29.1-40s42.1-2,61.2,5c10.7,3.9,28.3,21.3,57.7,38.5h41.5c-26-9.1-49.8-20.2-61.6-32
	c-21.1-21-5-43,7-50c60.1-34.9,84.2-47,132.4-49s119.3,5,160.5,17c19.4,5.7,31,9.8,38.1,16.6v-22.6c-34.4-10-91.5-14.5-133.9-22.5
	C309.9,357,285.8,375,239.7,389z"/>
<path fill="#FFFFFF" stroke="#4C412E" stroke-miterlimit="10" d="M513,512.5v-11.9c-4.4,4.1-10.1,7.8-17.1,11.9H513z"/>
<path fill="#FFFFFF" stroke="#4C412E" stroke-miterlimit="10" d="M509.2,471.5c4-10,16-51-41-63s-155-11-179-8s-96.1,12.2-98,50
	c-2,40,35,41,88,57c6.5,2,13.3,3.6,20.3,5h158.7C510.2,505.5,505.2,481.5,509.2,471.5z M489.2,468.5c-14,20-50,35-119,30
	s-121-4-132-42c-8.5-39.7,75.3-39,105-40c21.2-0.7,100-7,124,7S503.2,448.5,489.2,468.5z"/>
<path fill="#FFFFFF" stroke="#4C412E" stroke-miterlimit="10" d="M430.9,431.5c-18.1-9.3-77.4-5.2-93.4-4.7
	c-22.4,0.7-85.5,0.2-79.1,26.6c8.3,25.3,47.5,24.6,99.4,27.9s79.1-6.7,89.6-20S449,440.8,430.9,431.5z"/>
</svg>
